<svg width="1024" height="1024" xmlns="http://www.w3.org/2000/svg" viewBox="0 0 1024 1024" role="img" aria-label="Captain icon: glass ship's wheel, dark">
<defs>
<linearGradient id="glassdark-bg" x1="0" y1="0" x2="1" y2="1">
<stop offset="0" stop-color="#2A2E5C"></stop>
<stop offset="0.55" stop-color="#121633"></stop>
<stop offset="1" stop-color="#07131F"></stop>
</linearGradient>
<radialGradient id="glassdark-glow" cx="0.3" cy="0.25" r="0.8">
<stop offset="0" stop-color="#FFFFFF" stop-opacity="0.12"></stop>
<stop offset="0.6" stop-color="#FFFFFF" stop-opacity="0"></stop>
</radialGradient>
<linearGradient id="glassdark-fill" x1="0" y1="0" x2="1" y2="1">
<stop offset="0" stop-color="#8FC2FF" stop-opacity="0.55"></stop>
<stop offset="1" stop-color="#4E7BFF" stop-opacity="0.2"></stop>
</linearGradient>
<linearGradient id="glassdark-edge" x1="0" y1="0" x2="1" y2="1">
<stop offset="0" stop-color="#FFFFFF" stop-opacity="0.95"></stop>
<stop offset="0.5" stop-color="#FFFFFF" stop-opacity="0.2"></stop>
<stop offset="1" stop-color="#FFFFFF" stop-opacity="0.7"></stop>
</linearGradient>
<filter id="glassdark-shadow" x="-20%" y="-20%" width="140%" height="140%">
<feDropShadow dx="0" dy="22" stdDeviation="22" flood-color="#0A1A5C" flood-opacity="0.45"></feDropShadow>
</filter>
<filter id="glassdark-icon-shadow" x="-10%" y="-10%" width="120%" height="125%">
<feDropShadow dx="0" dy="10" stdDeviation="14" flood-color="#000000" flood-opacity="0.3"></feDropShadow>
</filter>
</defs>
<g filter="url(#glassdark-icon-shadow)">
<rect x="100" y="100" width="824" height="824" rx="185" fill="url(#glassdark-bg)"></rect>
<rect x="100" y="100" width="824" height="824" rx="185" fill="url(#glassdark-glow)"></rect>
</g>
<g filter="url(#glassdark-shadow)">
<g fill="url(#glassdark-fill)" stroke="url(#glassdark-edge)" stroke-width="4">
<rect x="484" y="186" width="56" height="652" rx="28"></rect>
<rect x="484" y="186" width="56" height="652" rx="28" transform="rotate(45 512 512)"></rect>
<rect x="484" y="186" width="56" height="652" rx="28" transform="rotate(90 512 512)"></rect>
<rect x="484" y="186" width="56" height="652" rx="28" transform="rotate(135 512 512)"></rect>
</g>
<path d="M512 282a230 230 0 1 0 0.01 0zM512 352a160 160 0 1 1 -0.01 0z" fill="url(#glassdark-fill)" stroke="url(#glassdark-edge)" stroke-width="4" fill-rule="evenodd"></path>
<circle cx="836" cy="512" r="40" fill="url(#glassdark-fill)" stroke="url(#glassdark-edge)" stroke-width="4"></circle>
<circle cx="741.1" cy="741.1" r="40" fill="url(#glassdark-fill)" stroke="url(#glassdark-edge)" stroke-width="4"></circle>
<circle cx="512" cy="836" r="40" fill="url(#glassdark-fill)" stroke="url(#glassdark-edge)" stroke-width="4"></circle>
<circle cx="282.9" cy="741.1" r="40" fill="url(#glassdark-fill)" stroke="url(#glassdark-edge)" stroke-width="4"></circle>
<circle cx="188" cy="512" r="40" fill="url(#glassdark-fill)" stroke="url(#glassdark-edge)" stroke-width="4"></circle>
<circle cx="282.9" cy="282.9" r="40" fill="url(#glassdark-fill)" stroke="url(#glassdark-edge)" stroke-width="4"></circle>
<circle cx="512" cy="188" r="40" fill="url(#glassdark-fill)" stroke="url(#glassdark-edge)" stroke-width="4"></circle>
<circle cx="741.1" cy="282.9" r="40" fill="url(#glassdark-fill)" stroke="url(#glassdark-edge)" stroke-width="4"></circle>
<circle cx="512" cy="512" r="84" fill="url(#glassdark-fill)" stroke="url(#glassdark-edge)" stroke-width="4"></circle>
<path d="M 360 400 A 190 190 0 0 1 560 326" fill="none" stroke="#FFFFFF" stroke-opacity="0.85" stroke-width="10" stroke-linecap="round"></path>
<circle cx="512" cy="512" r="30" fill="#9CCBFF" fill-opacity="0.95"></circle>
</g>
</svg>